<svg id="visual" viewBox="0 0 960 540" width="960" height="540" xmlns="http://www.w3.org/2000/svg" xmlns:xlink="http://www.w3.org/1999/xlink" version="1.1"><path d="M0 25L17.8 23.5C35.7 22 71.3 19 106.8 28.3C142.3 37.7 177.7 59.3 213.2 60.2C248.7 61 284.3 41 320 31.2C355.7 21.3 391.3 21.7 426.8 29.2C462.3 36.7 497.7 51.3 533.2 52C568.7 52.7 604.3 39.3 640 40C675.7 40.7 711.3 55.3 746.8 58.2C782.3 61 817.7 52 853.2 44.8C888.7 37.7 924.3 32.3 942.2 29.7L960 27L960 0L942.2 0C924.3 0 888.7 0 853.2 0C817.7 0 782.3 0 746.8 0C711.3 0 675.7 0 640 0C604.3 0 568.7 0 533.2 0C497.7 0 462.3 0 426.8 0C391.3 0 355.7 0 320 0C284.3 0 248.7 0 213.2 0C177.7 0 142.3 0 106.8 0C71.3 0 35.7 0 17.8 0L0 0Z" fill="#ffffff" stroke-linecap="round" stroke-linejoin="miter"></path></svg>